<?xml version="1.0" encoding="UTF-8"?><!DOCTYPE svg PUBLIC "-//W3C//DTD SVG 1.1//EN" "http://www.w3.org/Graphics/SVG/1.1/DTD/svg11.dtd"><svg xmlns="http://www.w3.org/2000/svg"><symbol id="icon-arrow" viewBox="0 0 32 32">
    <path d="M14.77 23.795L5.185 14.21a2.265 2.265 0 0 1 0-3.195l.8-.801a2.266 2.266 0 0 1 3.194 0l7.315 7.315 7.316-7.315a2.266 2.266 0 0 1 3.194 0l.8.801a2.265 2.265 0 0 1 0 3.195l-9.587 9.585a2.242 2.242 0 0 1-1.723.647 2.247 2.247 0 0 1-1.724-.647z"/>
</symbol><symbol id="icon-facebook" viewBox="0 0 10 19">
    <title>
        facebook
    </title>
    <path d="M9.766.157v2.946H8.014c-.64 0-1.071.134-1.295.402-.223.268-.335.67-.335 1.205v2.11h3.27l-.435 3.303H6.384v8.471H2.97v-8.47H.123V6.82H2.97V4.387c0-1.384.387-2.457 1.161-3.22C4.904.404 5.934.023 7.222.023c1.093 0 1.941.045 2.544.134z" fill-rule="evenodd"/>
</symbol></svg>